<?xml version="1.0" standalone="no"?>
<!DOCTYPE svg PUBLIC "-//W3C//DTD SVG 20010904//EN"
 "http://www.w3.org/TR/2001/REC-SVG-20010904/DTD/svg10.dtd">
<svg version="1.0" xmlns="http://www.w3.org/2000/svg"
 width="260.000000pt" height="260.000000pt" viewBox="0 0 260.000000 260.000000"
 preserveAspectRatio="xMidYMid meet">
<metadata>
Created by potrace 1.14, written by Peter Selinger 2001-2017
</metadata>
<g transform="translate(0.000000,260.000000) scale(0.100000,-0.100000)"
fill="#000000" stroke="none">
<path d="M0 1300 l0 -1300 1300 0 1300 0 0 1300 0 1300 -1300 0 -1300 0 0
-1300z m1920 815 c200 -51 366 -189 461 -380 59 -121 74 -188 73 -340 0 -119
-2 -138 -31 -220 -54 -157 -136 -273 -255 -361 l-57 -42 75 -118 c41 -65 73
-122 71 -127 -1 -5 -25 -21 -52 -37 l-50 -29 -78 125 c-43 68 -83 124 -89 124
-5 0 -38 -7 -72 -17 -81 -22 -250 -22 -338 0 -71 17 -170 60 -226 97 l-33 22
21 -51 c11 -29 20 -54 20 -57 0 -3 -32 -4 -72 -2 l-72 3 -43 115 c-24 63 -55
145 -69 183 l-26 67 -326 -2 -327 -3 -69 -183 -69 -182 -73 0 -73 0 23 63 c33
86 496 1297 507 1325 8 20 15 22 82 22 l74 0 104 -275 c57 -151 107 -275 110
-275 3 0 11 23 18 52 22 82 96 218 157 286 103 115 244 197 393 227 82 18 223
13 311 -10z"/>
<path d="M1653 2000 c-182 -33 -330 -145 -413 -315 -58 -116 -73 -189 -67
-310 6 -126 32 -210 95 -306 99 -151 249 -244 426 -263 52 -6 188 8 212 22 11
6 -2 34 -66 135 l-79 127 42 26 c23 15 47 31 53 36 8 6 38 -33 95 -127 46 -74
87 -135 91 -135 18 0 114 89 155 143 145 196 163 448 46 669 -42 80 -136 181
-208 223 -112 66 -263 96 -382 75z"/>
<path d="M740 1894 c-75 -197 -260 -688 -260 -690 0 -2 123 -4 274 -4 l274 0
-135 358 c-74 196 -137 359 -139 361 -2 2 -8 -9 -14 -25z"/>
</g>
</svg>
