<?xml version="1.0" encoding="utf-8"?>
<!-- Generator: Adobe Illustrator 27.5.0, SVG Export Plug-In . SVG Version: 6.00 Build 0)  -->
<svg version="1.1" id="Layer_1" xmlns="http://www.w3.org/2000/svg" xmlns:xlink="http://www.w3.org/1999/xlink" x="0px" y="0px"
	 viewBox="0 0 69.9 14.7" style="enable-background:new 0 0 69.9 14.7;" xml:space="preserve">
<style type="text/css">
	.st0{fill:#FFFFFF;}
</style>
<g id="Layer_1_1_">
	<path class="st0" d="M8.2,9.3H2.5l-1.2,3.3H0L4.7,0.2H6l4.7,12.4H9.5L8.2,9.3z M7.8,8.3L5.4,1.8L2.9,8.3H7.8z"/>
	<path class="st0" d="M21.7,9.3H16l-1.2,3.3h-1.3l4.7-12.4h1.3l4.7,12.4H23L21.7,9.3z M21.3,8.3l-2.4-6.5l-2.5,6.5H21.3z"/>
	<path class="st0" d="M37,12l1.4,2.2l-0.9,0.6l-1.4-2.2c-0.7,0.3-1.4,0.4-2.2,0.4c-3.5,0-6.3-2.8-6.3-6.3c0,0,0,0,0-0.1
		c0-3.5,2.8-6.3,6.3-6.3s6.3,2.8,6.3,6.3C40.1,8.7,39,10.8,37,12z M35.4,11.5L34,9.2l0.9-0.6l1.5,2.4c1.6-1,2.5-2.7,2.5-4.6
		c0.2-2.8-2-5.2-4.8-5.4c-2.8-0.2-5.2,2-5.4,4.8c0,0.2,0,0.4,0,0.6c-0.1,2.8,2.2,5.2,5,5.3l0,0C34.4,11.7,34.9,11.6,35.4,11.5
		L35.4,11.5z"/>
	<path class="st0" d="M45.4,0.2h1.2v12.4h-1.2V0.2z"/>
	<path class="st0" d="M59.3,11.5v1.1h-6.5V0.2H54v11.3H59.3z"/>
	<path class="st0" d="M69.9,11.5v1.1h-6.5V0.2h1.2v11.3H69.9z"/>
</g>
</svg>
