<?xml version="1.0" encoding="utf-8"?>
<!-- Generator: Adobe Illustrator 25.0.0, SVG Export Plug-In . SVG Version: 6.00 Build 0)  -->
<svg version="1.1" id="Layer_1" xmlns="http://www.w3.org/2000/svg" xmlns:xlink="http://www.w3.org/1999/xlink" x="0px" y="0px"
	 viewBox="0 0 27.4 22.6" style="enable-background:new 0 0 27.4 22.6;" xml:space="preserve">
<style type="text/css">
	.st0{fill:#FFFFFF;}
</style>
<g id="Layer_1_1_">
	<path class="st0" d="M0.1,13.4C0.8,8.3,3.2,3.6,6.9,0L9,1.5L8.7,1.8C6.3,4.3,5.1,6.5,5.1,8.4c0.1,1,0.9,1.7,2.4,2.2
		c0.4,0.1,0.7,0.2,1.1,0.3c2.4,0.8,3.9,3.1,3.8,5.6c0,0.9-0.2,1.8-0.5,2.6c-0.8,2.2-3,3.7-5.4,3.6c-0.7,0-1.4-0.1-2-0.3
		C1.5,21.4,0,19,0,15.1C0,14.5,0,13.9,0.1,13.4z M15,13.4c0.6-4.8,2.9-9.2,6.9-13.4L24,1.5l-0.3,0.3C21.2,4.4,20,6.6,20,8.4
		c0.1,1,0.9,1.7,2.5,2.2c0.4,0.1,0.7,0.2,1.1,0.3c2.4,0.8,3.9,3.1,3.8,5.6c0,1-0.2,1.9-0.6,2.8c-0.9,2.1-3,3.5-5.3,3.4
		c-0.8,0-1.6-0.1-2.3-0.4c-2.9-0.9-4.3-3.3-4.3-7.1C14.9,14.5,14.9,13.9,15,13.4L15,13.4z"/>
</g>
</svg>
